<svg xmlns="http://www.w3.org/2000/svg" viewBox="0 0 148 148"><defs><style>.cls-1{fill:#fff;}</style></defs><title>bridge_icon_white</title><g id="Layer_2" data-name="Layer 2"><g id="Layer_1-2" data-name="Layer 1"><path class="cls-1" d="M104.86,14A29.17,29.17,0,0,1,134,43.14v61.72A29.17,29.17,0,0,1,104.86,134H43.14A29.17,29.17,0,0,1,14,104.86V43.14A29.17,29.17,0,0,1,43.14,14h61.72m0-14H43.14A43.14,43.14,0,0,0,0,43.14v61.72A43.14,43.14,0,0,0,43.14,148h61.72A43.14,43.14,0,0,0,148,104.86V43.14A43.14,43.14,0,0,0,104.86,0Z"/><path class="cls-1" d="M74,62A12,12,0,1,1,62,74,12,12,0,0,1,74,62m0-14h0A26,26,0,0,0,48,74h0a26,26,0,0,0,26,26h0a26,26,0,0,0,26-26h0A26,26,0,0,0,74,48Z"/><path class="cls-1" d="M49,26a7,7,0,1,0,7,7,7,7,0,0,0-7-7Z"/><path class="cls-1" d="M98,26a7,7,0,1,0,7,7,7,7,0,0,0-7-7Z"/><path class="cls-1" d="M73.5,26a7,7,0,1,0,7,7,7,7,0,0,0-7-7Z"/></g></g></svg>